<svg xmlns="http://www.w3.org/2000/svg" width="64" height="64" fill="none" viewBox="0 0 64 64">
  <path fill="#B8B8B8" fill-rule="evenodd" d="M46 2H18C9.163 2 2 9.163 2 18v28c0 8.837 7.163 16 16 16h28c8.837 0 16-7.163 16-16V18c0-8.837-7.163-16-16-16ZM18 0C8.059 0 0 8.059 0 18v28c0 9.941 8.059 18 18 18h28c9.941 0 18-8.059 18-18V18c0-9.941-8.059-18-18-18H18Z" clip-rule="evenodd"/>
  <path fill="#444" d="m21.243 17 25.456 25.456-4.243 4.242L17 21.243z"/>
  <path fill="#444" d="M17 42.456 42.456 17l4.242 4.243-25.455 25.456z"/>
</svg>
