<?xml version="1.0" standalone="no"?>
<!DOCTYPE svg PUBLIC "-//W3C//DTD SVG 20010904//EN"
 "http://www.w3.org/TR/2001/REC-SVG-20010904/DTD/svg10.dtd">
<svg version="1.0" xmlns="http://www.w3.org/2000/svg"
 width="1024.000000pt" height="1024.000000pt" viewBox="0 0 1024.000000 1024.000000"
 preserveAspectRatio="xMidYMid meet">
<metadata>
Created by potrace 1.14, written by Peter Selinger 2001-2017
</metadata>
<g transform="translate(0.000000,1024.000000) scale(0.100000,-0.100000)"
fill="#000000" stroke="none">
<path d="M8539 10185 c0 -11 -3 -15 -5 -10 -4 10 -173 11 -198 2 -7 -3 -19 -1
-26 3 -8 5 -22 4 -33 -2 -15 -7 -22 -7 -28 3 -7 12 -9 12 -9 0 0 -10 -3 -11
-14 -2 -8 7 -17 8 -20 3 -3 -5 -26 -6 -50 -2 -25 4 -51 3 -58 -1 -6 -4 -19 -4
-28 1 -9 5 -23 4 -34 -2 -14 -8 -21 -7 -27 3 -7 12 -9 12 -9 0 0 -10 -3 -11
-14 -2 -8 7 -17 8 -20 3 -3 -5 -26 -6 -50 -2 -25 4 -51 3 -58 -1 -6 -4 -19 -4
-28 1 -9 5 -23 4 -34 -2 -14 -8 -21 -7 -27 3 -7 12 -9 12 -9 0 0 -10 -3 -11
-14 -2 -8 7 -17 8 -20 3 -3 -5 -26 -6 -50 -2 -25 4 -51 3 -57 -1 -7 -4 -22 -3
-34 1 -15 6 -27 4 -34 -3 -9 -9 -14 -8 -21 3 -8 12 -10 12 -10 1 0 -10 -3 -11
-13 -2 -8 6 -17 8 -21 4 -3 -4 -1673 -8 -3709 -8 -2036 -1 -3703 -3 -3705 -4
-6 -3 319 -321 328 -321 6 0 9 -3 8 -7 -2 -5 138 -149 310 -321 171 -171 312
-317 312 -322 0 -6 4 -9 8 -8 5 2 46 -35 91 -82 46 -47 89 -84 95 -82 6 2 8 1
4 -3 -7 -8 118 -135 133 -135 5 0 8 -3 7 -7 -2 -5 71 -82 162 -173 91 -91 164
-168 162 -172 -1 -5 3 -8 9 -8 5 0 42 -33 81 -72 39 -40 76 -72 82 -70 6 2 8
1 4 -3 -4 -4 14 -28 40 -53 26 -25 46 -49 44 -54 -1 -4 7 -8 19 -8 11 0 18 -4
14 -9 -3 -6 4 -15 15 -21 12 -6 18 -16 14 -23 -4 -7 -4 -9 1 -5 4 4 41 -27 83
-70 41 -42 80 -76 86 -74 6 2 8 1 4 -3 -4 -4 10 -23 30 -42 20 -20 36 -39 35
-44 -2 -5 4 -9 12 -9 8 0 19 -9 25 -20 6 -11 17 -20 25 -20 8 0 14 -6 12 -12
-1 -7 4 -12 11 -11 6 2 12 -2 12 -8 0 -6 19 -29 43 -52 23 -22 41 -44 40 -48
-2 -5 1 -9 7 -9 18 0 60 -43 53 -54 -3 -6 -3 -8 1 -5 9 9 322 -302 318 -315
-2 -6 -1 -8 3 -4 4 4 23 -10 42 -30 20 -20 41 -36 47 -34 6 2 8 1 4 -3 -8 -8
56 -75 71 -75 6 0 10 -3 10 -7 -3 -18 1 -36 7 -30 4 3 36 -24 72 -61 35 -37
70 -66 76 -64 6 2 8 1 5 -3 -8 -8 242 -261 254 -257 5 1 6 -2 2 -8 -3 -5 -1
-10 5 -10 17 0 3 -50 -18 -68 -9 -7 -11 -11 -4 -7 6 3 12 2 12 -3 0 -6 -7 -13
-16 -16 -8 -3 -12 -10 -9 -16 3 -5 1 -10 -5 -10 -7 0 -10 -7 -6 -15 3 -8 1
-15 -5 -15 -5 0 -15 -13 -20 -30 -6 -16 -15 -30 -21 -30 -5 0 -6 -5 -3 -11 4
-6 -1 -17 -11 -25 -11 -9 -13 -12 -5 -9 14 8 -16 -45 -34 -57 -6 -5 -4 -8 5
-8 12 -1 11 -3 -3 -11 -9 -6 -15 -14 -12 -20 4 -5 2 -9 -4 -9 -5 0 -8 -9 -6
-20 2 -11 0 -18 -6 -15 -5 4 -9 1 -9 -5 0 -6 -5 -8 -10 -5 -6 3 -10 2 -10 -4
0 -5 6 -12 13 -14 10 -4 10 -6 0 -6 -7 -1 -13 -8 -13 -16 0 -8 -5 -15 -11 -15
-6 0 -9 -7 -5 -15 3 -8 1 -15 -4 -15 -6 0 -10 -7 -10 -16 0 -9 -5 -12 -12 -8
-6 4 -8 3 -4 -4 6 -9 -11 -59 -24 -72 -15 -15 -30 -52 -24 -62 4 -6 3 -8 -3
-5 -11 7 -27 -28 -23 -52 1 -8 -4 -11 -13 -8 -10 4 -14 -1 -13 -16 1 -12 -4
-21 -11 -20 -7 2 -10 -3 -7 -11 3 -7 -1 -20 -9 -27 -7 -8 -12 -20 -9 -27 2 -6
-1 -12 -8 -12 -6 0 -9 -4 -6 -9 3 -5 -1 -14 -9 -21 -8 -7 -12 -16 -9 -21 3 -5
-1 -12 -10 -15 -8 -3 -12 -12 -10 -19 3 -7 0 -16 -7 -21 -8 -5 -10 -3 -4 6 5
8 4 11 -2 7 -5 -3 -9 -20 -8 -36 1 -17 -1 -29 -4 -27 -3 2 -12 -2 -19 -10 -8
-9 -9 -14 -2 -14 7 0 4 -7 -4 -16 -9 -8 -16 -22 -16 -30 0 -8 -4 -13 -8 -10
-4 2 -9 -5 -9 -17 -1 -12 -7 -23 -13 -25 -5 -2 -8 -8 -4 -13 3 -5 1 -9 -4 -9
-9 0 -23 -35 -27 -65 0 -5 -7 -9 -14 -7 -9 2 -10 -4 -6 -20 4 -13 4 -20 0 -16
-8 8 -45 -57 -45 -79 0 -7 -5 -13 -11 -13 -5 0 -7 -4 -4 -10 3 -5 1 -10 -5
-10 -6 0 -8 -4 -5 -10 3 -5 1 -10 -4 -10 -6 0 -11 -3 -10 -7 2 -16 -14 -53
-22 -53 -5 0 -9 -6 -9 -14 0 -21 -26 -67 -34 -59 -4 4 -4 0 0 -10 3 -10 1 -19
-8 -22 -8 -3 -14 -15 -15 -26 -1 -12 -9 -29 -17 -38 -8 -9 -15 -20 -16 -26 -5
-23 -20 -54 -29 -60 -6 -3 -11 -15 -11 -26 0 -10 -5 -19 -11 -19 -5 0 -8 -4
-4 -9 3 -5 1 -12 -5 -16 -6 -4 -8 -10 -5 -15 3 -4 -2 -10 -10 -14 -9 -3 -12
-12 -8 -22 4 -12 3 -15 -5 -10 -7 4 -12 1 -12 -8 0 -28 -1 -31 -16 -39 -8 -4
-14 -17 -14 -27 0 -11 -5 -20 -11 -20 -5 0 -8 -4 -4 -9 3 -5 -1 -16 -9 -24 -8
-8 -12 -17 -9 -21 4 -3 1 -6 -6 -6 -7 0 -10 -4 -6 -9 3 -5 1 -12 -5 -16 -6 -4
-8 -11 -5 -16 4 -5 1 -9 -6 -9 -7 0 -10 -3 -6 -6 3 -3 -1 -13 -9 -22 -8 -10
-13 -20 -12 -23 2 -4 -6 -17 -17 -30 -12 -13 -14 -19 -5 -14 13 8 13 7 0 -11
-8 -10 -19 -22 -23 -25 -5 -3 -9 -10 -9 -15 -3 -25 -11 -43 -19 -38 -5 3 -6
-1 -3 -9 3 -8 -1 -21 -9 -28 -7 -8 -12 -20 -9 -27 2 -6 -1 -12 -6 -12 -10 0
-22 -25 -22 -43 1 -4 -6 -15 -15 -23 -8 -9 -13 -20 -10 -25 4 -5 2 -9 -3 -9
-6 0 -13 -11 -16 -25 -4 -15 -11 -23 -18 -19 -6 4 -9 1 -6 -7 3 -8 -14 -51
-38 -96 -23 -46 -40 -83 -36 -83 4 0 1 -4 -7 -9 -8 -5 -16 -20 -18 -32 -2 -13
-7 -26 -12 -29 -8 -5 -51 -93 -51 -105 0 -4 -9 -18 -20 -32 -11 -14 -17 -29
-14 -34 3 -5 0 -9 -5 -9 -6 0 -11 -7 -11 -15 0 -8 -5 -15 -11 -15 -5 0 -7 -5
-4 -11 4 -6 -1 -17 -11 -24 -11 -8 -15 -15 -10 -15 5 0 3 -7 -4 -15 -6 -8 -9
-19 -5 -25 3 -5 -1 -10 -10 -10 -9 0 -13 -5 -9 -11 3 -6 3 -14 -2 -18 -16 -11
-54 -93 -48 -102 3 -5 -2 -9 -11 -9 -9 0 -14 -4 -10 -9 3 -5 1 -12 -5 -16 -5
-3 -10 -15 -10 -26 0 -10 -4 -19 -10 -19 -5 0 -10 -7 -10 -15 0 -8 -5 -15 -12
-15 -6 0 -8 -3 -5 -6 4 -4 -7 -31 -22 -60 -16 -29 -27 -55 -24 -58 4 -3 1 -6
-5 -6 -7 0 -12 -9 -12 -20 0 -11 -4 -20 -10 -20 -5 0 -10 -7 -10 -15 0 -8 -5
-15 -11 -15 -5 0 -7 -5 -4 -10 3 -6 -1 -17 -9 -26 -9 -9 -14 -20 -11 -25 4 -5
1 -9 -5 -9 -7 0 -10 -6 -7 -14 3 -8 0 -17 -8 -19 -7 -3 -16 -19 -20 -36 -4
-20 -11 -29 -18 -24 -7 3 -9 2 -4 -2 4 -5 0 -19 -8 -32 -9 -13 -13 -23 -10
-23 4 0 -1 -7 -9 -16 -9 -8 -14 -19 -11 -24 3 -5 2 -10 -2 -12 -8 -3 -71 -127
-72 -141 0 -4 -7 -15 -16 -23 -8 -9 -13 -20 -10 -25 4 -5 2 -9 -4 -9 -5 0 -12
-14 -16 -31 -4 -17 -13 -33 -21 -36 -8 -3 -12 -9 -9 -13 3 -5 1 -11 -5 -15 -5
-3 -10 -15 -10 -26 0 -10 -4 -19 -10 -19 -5 0 -10 -9 -10 -20 0 -11 -4 -20
-10 -20 -5 0 -10 -7 -10 -15 0 -8 -4 -15 -10 -15 -5 0 -7 -7 -4 -15 4 -8 1
-15 -5 -15 -6 0 -11 -7 -11 -15 0 -8 -4 -15 -10 -15 -5 0 -7 -7 -4 -15 4 -8 2
-15 -3 -15 -13 0 -35 -49 -28 -61 4 -5 -1 -9 -10 -9 -9 0 -13 -5 -10 -10 3 -6
-1 -17 -9 -26 -9 -9 -14 -20 -11 -25 4 -5 3 -9 -2 -9 -11 0 -34 -51 -27 -61 3
-5 -2 -9 -11 -9 -9 0 -14 -4 -10 -9 3 -5 1 -12 -5 -16 -5 -3 -10 -15 -10 -26
0 -10 -4 -19 -10 -19 -5 0 -10 -7 -10 -15 0 -8 -5 -15 -12 -15 -6 0 -8 -3 -5
-6 4 -4 -7 -31 -22 -60 -16 -29 -27 -55 -24 -58 4 -3 1 -6 -6 -6 -7 0 -9 -4
-6 -10 3 -5 2 -10 -3 -10 -9 0 -32 -50 -31 -67 1 -3 -6 -10 -15 -15 -8 -5 -13
-15 -10 -23 4 -8 2 -15 -4 -15 -9 0 -25 -37 -23 -52 1 -5 -3 -8 -9 -8 -5 0
-10 -9 -10 -21 0 -11 -4 -17 -10 -14 -5 3 -10 -3 -10 -14 0 -12 -5 -21 -12
-21 -6 0 -8 -3 -5 -6 7 -7 -17 -55 -43 -88 -13 -17 -13 -18 0 -11 11 6 10 3
-3 -12 -9 -11 -17 -27 -17 -36 0 -9 -4 -17 -9 -17 -10 0 -27 -39 -23 -52 1 -5
-3 -8 -9 -8 -5 0 -7 -4 -4 -10 3 -5 2 -10 -2 -10 -5 0 -17 -20 -28 -45 -11
-25 -23 -45 -27 -45 -4 0 -5 -7 -2 -15 4 -8 1 -15 -5 -15 -6 0 -11 -7 -11 -15
0 -9 -7 -18 -15 -21 -11 -5 -13 -10 -5 -19 8 -9 6 -14 -5 -19 -8 -3 -15 -12
-15 -21 0 -8 -5 -15 -10 -15 -6 0 -9 -4 -8 -8 3 -10 -34 -86 -44 -90 -4 -2 -5
-9 -2 -16 3 -7 -2 -19 -11 -26 -8 -7 -15 -19 -15 -26 0 -8 -5 -14 -11 -14 -5
0 -8 -4 -4 -9 3 -5 1 -12 -5 -16 -6 -4 -8 -11 -5 -16 4 -5 2 -9 -3 -9 -5 0
-24 -33 -42 -72 -18 -40 -40 -78 -49 -85 -9 -6 -13 -15 -9 -19 4 -4 -1 -19
-11 -33 -17 -24 -36 -72 -32 -79 1 -1 -5 -10 -14 -18 -8 -9 -15 -22 -15 -30 0
-8 -5 -14 -11 -14 -5 0 -8 -4 -4 -9 3 -5 -6 -26 -20 -47 -14 -20 -25 -43 -25
-51 0 -8 -4 -12 -9 -8 -6 3 -8 -4 -6 -16 3 -15 0 -19 -11 -15 -8 3 -13 2 -10
-3 7 -11 -16 -71 -27 -71 -4 0 -6 -4 -3 -9 3 -5 -1 -14 -9 -21 -8 -7 -12 -16
-9 -21 3 -5 0 -9 -6 -9 -6 0 -9 -4 -5 -9 3 -5 -2 -17 -11 -25 -8 -9 -12 -16
-8 -16 4 0 -1 -9 -12 -21 -10 -12 -18 -23 -17 -25 4 -9 -10 -44 -18 -44 -5 0
-9 -9 -9 -20 0 -11 -8 -28 -18 -38 -10 -10 -18 -26 -16 -35 1 -10 -2 -15 -7
-11 -5 3 -9 -4 -9 -15 0 -12 -5 -21 -11 -21 -6 0 -9 -7 -5 -15 3 -9 0 -15 -9
-15 -9 0 -12 -6 -9 -15 4 -8 1 -15 -6 -15 -6 0 -8 -5 -5 -10 3 -5 1 -10 -5
-10 -6 0 -8 -5 -5 -10 3 -6 1 -10 -5 -10 -7 0 -10 -6 -7 -12 2 -7 -2 -17 -9
-23 -8 -5 -15 -20 -17 -32 -2 -11 -8 -27 -14 -35 -7 -7 -9 -18 -5 -24 8 -12
10102 -15 10102 -3 0 4 -7 10 -16 13 -8 3 -12 10 -9 16 3 5 -3 10 -14 10 -12
0 -20 4 -19 8 2 5 -14 24 -34 44 -21 19 -35 38 -31 42 6 5 -12 10 -29 7 -5 0
-8 4 -8 10 0 14 -55 69 -69 69 -6 0 -10 4 -9 8 2 5 -39 49 -89 99 -51 49 -93
95 -93 102 0 7 -4 10 -8 7 -4 -2 -18 9 -31 25 -13 16 -27 26 -32 23 -8 -5 -13
9 -10 29 0 4 -8 7 -19 7 -11 0 -19 3 -18 8 4 11 -229 242 -236 234 -6 -5 -10
13 -7 31 0 4 -4 7 -10 7 -14 0 -69 55 -69 70 0 6 -4 9 -8 6 -5 -3 -28 17 -52
44 -24 27 -47 47 -52 44 -7 -5 -12 10 -9 28 0 5 -8 8 -19 8 -11 0 -19 4 -18 9
2 4 -22 32 -52 61 -30 29 -54 57 -52 61 1 5 -2 9 -7 9 -5 0 -65 55 -132 122
-68 68 -127 122 -131 120 -5 -1 -8 3 -8 8 0 6 -22 32 -50 59 -27 27 -50 54
-50 60 0 6 -3 10 -7 9 -5 -2 -119 108 -255 244 -135 136 -249 244 -252 241 -3
-4 -6 0 -6 9 0 8 -16 27 -35 42 -19 16 -32 32 -29 37 3 5 -2 9 -10 9 -8 0 -20
9 -26 20 -6 11 -17 20 -25 20 -8 0 -14 3 -13 8 4 9 -504 518 -514 514 -5 -1
-8 7 -8 18 0 11 -4 19 -8 18 -10 -4 -92 78 -92 92 0 6 -4 9 -8 6 -5 -3 -28 17
-52 44 -24 27 -47 47 -52 44 -8 -5 -12 11 -8 31 1 6 -1 7 -5 4 -3 -4 -72 59
-153 139 -81 81 -150 146 -154 144 -8 -2 -12 15 -8 33 1 6 -1 7 -5 4 -3 -4
-28 15 -55 41 -26 27 -51 46 -55 42 -4 -4 -6 -2 -4 3 1 6 -2 19 -6 29 -6 13
-4 21 3 24 7 2 10 8 6 13 -3 5 0 9 5 9 6 0 11 9 11 20 0 11 4 20 9 20 8 0 22
32 25 55 1 6 7 15 15 21 8 6 11 16 7 22 -4 7 -2 12 3 12 6 0 11 7 11 16 0 8 4
13 9 10 5 -4 8 2 7 11 -4 23 15 54 28 46 5 -3 6 -1 3 5 -10 15 3 43 17 35 6
-4 4 2 -4 12 -8 10 -10 16 -5 13 10 -6 22 14 39 65 3 11 11 15 17 11 8 -4 9
-3 5 5 -4 6 -2 18 4 26 7 8 9 15 4 15 -5 0 2 10 16 21 14 11 19 18 13 14 -20
-10 -15 5 14 43 15 20 20 32 12 27 -9 -6 -8 -2 3 11 9 10 17 24 18 29 1 6 7 9
13 7 9 -3 9 0 0 9 -9 9 -7 16 10 31 12 11 15 17 7 13 -8 -4 -6 1 5 10 15 13
17 19 7 22 -10 4 -8 9 7 20 12 8 19 19 16 24 -4 5 -1 9 5 9 6 0 8 5 5 10 -3 6
-2 10 3 10 6 0 13 11 16 25 4 14 11 25 16 25 5 0 7 7 4 15 -4 8 -1 15 7 15 7
0 9 3 6 7 -4 3 0 15 10 25 9 10 12 18 8 18 -5 0 0 7 11 16 10 8 12 12 4 8 -10
-5 -9 0 4 14 11 12 15 22 11 22 -5 0 2 12 16 27 13 14 17 22 9 18 -12 -7 -13
-6 -3 7 7 8 9 19 5 23 -4 5 -1 5 6 1 6 -4 13 -2 13 3 1 6 2 15 3 21 0 5 9 19
19 30 20 24 22 34 5 25 -7 -4 -6 -1 3 7 9 7 14 19 11 27 -3 8 0 11 7 7 6 -4
11 -1 11 8 0 9 5 16 11 16 5 0 8 4 5 9 -6 10 18 63 25 56 3 -2 6 5 6 17 1 11
10 29 19 39 9 11 13 19 8 19 -5 0 -1 5 9 11 9 5 17 15 17 22 0 7 -4 6 -10 -3
-6 -9 -10 -10 -10 -3 0 6 10 19 22 27 15 11 18 16 8 16 -12 1 -11 3 2 10 9 6
15 19 13 30 -2 11 1 19 8 17 7 -1 11 4 10 11 -2 6 2 12 8 12 5 0 8 4 4 9 -3 5
2 16 10 24 8 9 15 23 15 31 0 9 5 16 11 16 6 0 9 6 7 12 -3 7 0 18 6 25 33 37
36 43 26 43 -7 0 -4 7 4 16 9 8 16 22 16 30 0 8 5 14 11 14 5 0 7 4 4 10 -3 6
-1 10 5 10 6 0 8 5 5 10 -3 6 -1 10 5 10 6 0 8 5 5 10 -3 6 -1 10 5 10 6 0 9
4 5 9 -3 5 6 26 20 47 14 21 28 48 31 61 4 13 10 23 16 23 5 0 6 5 3 10 -3 6
-1 10 5 10 6 0 9 4 5 9 -3 5 1 16 9 24 8 8 13 17 10 19 -2 3 2 11 11 18 8 7
15 21 15 31 0 11 4 19 10 19 5 0 9 3 8 8 -1 4 3 17 10 30 7 12 10 22 7 22 -3
0 3 10 15 22 11 12 19 27 17 32 -2 6 4 19 14 29 10 11 15 25 13 31 -3 7 2 19
10 26 9 7 13 16 10 21 -3 5 -1 9 4 9 5 0 19 24 33 53 13 28 27 54 32 55 4 2 5
8 1 13 -3 5 0 9 5 9 6 0 10 3 9 8 -3 10 34 85 45 93 5 4 6 12 3 18 -4 6 -2 11
5 11 7 0 9 3 6 7 -4 3 3 18 15 31 13 14 17 22 10 18 -11 -7 -11 -4 0 13 7 12
16 21 21 21 4 0 5 4 2 10 -3 6 -1 10 5 10 6 0 9 4 5 9 -3 5 -1 12 5 16 5 3 10
15 10 26 0 10 5 19 10 19 6 0 10 6 10 14 0 8 7 17 16 20 8 3 13 10 10 15 -8
12 15 62 25 55 4 -2 8 4 8 13 1 39 5 52 13 47 4 -3 8 2 8 10 0 9 4 16 8 16 4
0 9 10 9 22 1 13 9 28 18 34 9 7 16 16 16 21 -1 17 11 43 20 43 6 0 7 5 4 10
-3 6 1 17 9 26 9 9 14 20 11 25 -4 5 -1 9 4 9 6 0 11 7 11 16 0 9 5 12 13 8 9
-6 9 -4 -1 8 -10 13 -10 17 3 22 9 3 14 10 11 15 -3 5 1 14 10 21 8 7 13 19
10 26 -3 7 2 15 10 18 9 3 12 10 9 16 -3 5 0 10 8 10 9 0 13 9 12 25 -2 14 1
23 6 19 8 -5 13 9 10 29 0 4 4 7 10 7 5 0 7 5 4 10 -3 6 -1 10 5 10 6 0 8 5 5
10 -3 6 -1 10 5 10 6 0 8 5 5 10 -3 6 -1 10 4 10 6 0 11 9 11 20 0 11 5 20 10
20 6 0 10 7 10 15 0 8 4 15 9 15 5 0 8 8 7 17 -2 10 7 26 18 36 12 10 15 16 9
12 -9 -4 -11 -1 -7 9 3 9 10 16 14 16 8 0 22 35 24 59 1 8 7 16 14 19 6 2 12
10 12 18 0 8 4 14 10 14 5 0 7 7 4 15 -4 8 -1 15 6 15 6 0 8 5 5 10 -3 6 1 13
9 16 9 3 13 11 9 17 -3 5 2 16 12 24 11 7 16 13 12 13 -4 0 -1 13 7 29 9 16
12 32 8 36 -4 5 -1 5 6 1 7 -4 12 -1 12 8 0 9 4 16 9 16 6 0 8 9 6 20 -2 12 2
20 10 20 9 0 12 6 9 15 -4 8 -1 15 6 15 7 0 10 7 6 15 -3 9 0 15 9 15 9 0 12
6 9 15 -4 8 -1 15 5 15 6 0 11 9 11 20 0 11 3 20 8 20 10 0 32 51 26 61 -3 5
2 9 10 9 10 0 13 6 10 15 -4 8 -1 15 6 15 6 0 9 4 5 9 -3 5 1 16 9 24 8 8 12
17 9 21 -3 3 1 8 10 12 9 3 13 12 10 20 -3 8 -1 14 5 14 9 0 23 30 26 55 1 6
6 13 11 17 6 4 10 11 11 15 1 15 39 88 49 95 7 5 7 8 0 8 -7 0 -7 3 0 8 17 12
36 52 30 62 -4 6 0 10 8 10 10 0 13 7 10 20 -4 14 -1 20 8 18 10 -2 13 5 11
21 -2 13 0 21 6 17 6 -3 13 8 17 25 4 17 13 33 20 36 8 2 11 11 8 19 -3 8 0
14 6 14 6 0 10 3 9 8 -2 13 53 122 63 122 5 0 8 3 7 8 -4 10 34 95 46 103 4 4
6 11 2 17 -3 5 1 13 10 16 9 3 14 13 11 20 -3 8 1 17 9 20 9 3 12 10 9 16 -3
5 -1 10 5 10 6 0 9 4 5 9 -3 5 2 17 11 25 8 9 12 16 7 16 -4 0 -3 4 2 8 17 12
36 52 30 62 -4 6 1 10 9 10 10 0 13 6 10 15 -4 8 -1 15 5 15 6 0 11 9 11 19 0
11 5 21 12 23 6 2 12 13 13 24 0 10 8 30 17 44 9 14 31 57 50 95 18 39 37 73
42 76 5 4 5 12 1 19 -5 8 -4 11 2 7 5 -4 16 12 23 33 7 22 17 40 22 40 4 0 8
7 8 15 0 8 4 15 10 15 5 0 7 7 4 15 -4 8 -1 15 6 15 7 0 10 7 6 15 -3 9 0 15
9 15 8 0 12 8 10 20 -2 13 2 20 11 20 8 0 13 4 9 9 -3 5 -1 12 5 16 5 3 10 15
10 26 0 10 5 19 10 19 6 0 10 7 10 15 0 8 5 15 12 15 6 0 8 3 5 6 -4 4 7 31
23 61 16 29 31 57 32 61 2 4 6 6 9 5 4 -1 4 7 1 19 -3 14 -1 19 6 14 8 -5 12
0 12 13 0 11 5 23 10 26 6 4 8 11 5 16 -4 5 1 12 9 15 9 3 13 11 10 16 -4 6
-2 13 3 17 11 7 43 74 43 90 0 6 3 11 8 11 8 0 47 81 44 93 -1 4 2 7 6 7 5 0
14 16 22 35 8 19 18 35 22 35 5 0 7 4 3 9 -3 5 2 17 11 25 8 9 12 16 8 16 -3
0 -1 7 6 15 7 8 9 15 4 15 -5 0 -4 4 2 8 7 4 19 24 27 45 9 20 21 37 27 37 6
0 9 4 5 9 -3 5 -1 12 4 16 6 3 8 12 5 19 -3 7 2 16 10 19 9 4 13 13 10 20 -3
8 2 17 11 21 9 3 13 10 10 16 -3 5 -1 10 4 10 6 0 11 5 11 12 0 6 8 20 18 31
9 11 11 17 4 13 -11 -7 -11 -4 0 13 7 12 16 21 21 21 4 0 6 4 2 9 -3 5 -1 12
5 16 18 11 11 38 -9 32 -10 -2 -25 0 -34 4 -10 6 -18 5 -23 -2 -5 -8 -3 -9 6
-4 9 5 11 4 6 -4 -5 -7 -12 -9 -19 -3 -18 13 -67 13 -67 0 0 -7 -7 -3 -16 8
-8 10 -13 13 -9 6 5 -9 -3 -11 -30 -7 -26 3 -34 1 -28 -8 4 -7 0 -7 -10 2 -14
11 -20 11 -34 0 -13 -11 -15 -11 -9 -1 6 10 3 13 -10 11 -11 -2 -24 0 -31 4
-6 4 -14 3 -18 -3 -3 -5 -11 -10 -16 -10 -6 0 -7 5 -3 11 5 8 1 8 -13 0 -14
-7 -24 -7 -33 2 -10 10 -12 9 -7 -5 4 -12 2 -15 -8 -11 -8 3 -12 10 -8 17 4 6
-1 5 -10 -3 -11 -8 -17 -9 -17 -3 0 6 -7 9 -15 6 -8 -4 -13 -9 -10 -13 5 -10
-27 -7 -43 3 -7 4 -16 5 -19 2 -3 -3 -12 -1 -19 5 -8 7 -14 7 -19 -1 -3 -5
-11 -10 -16 -10 -6 0 -7 5 -3 11 5 8 1 8 -13 0 -14 -7 -24 -7 -33 2 -10 10
-12 8 -6 -8 6 -16 5 -18 -5 -7 -15 14 -53 17 -44 2 3 -6 -1 -7 -9 -4 -9 3 -13
10 -10 15 7 12 -29 -2 -38 -15 -5 -8 -8 -8 -8 0 0 15 -120 13 -120 -1 0 -6 -3
-6 -8 1 -8 12 -52 14 -52 1 0 -4 -5 -5 -10 -2 -6 4 -7 12 -3 18 4 7 0 6 -10
-2 -13 -10 -20 -11 -31 -2 -9 8 -16 8 -20 2 -7 -11 -76 -9 -94 3 -8 5 -10 1
-5 -10 4 -12 3 -15 -6 -10 -19 12 -61 14 -61 4 0 -5 -5 -6 -10 -3 -6 4 -7 12
-3 18 4 7 0 6 -10 -2 -13 -10 -20 -11 -31 -2 -9 8 -16 8 -20 2 -7 -11 -76 -9
-94 3 -7 4 -10 2 -7 -6 4 -9 -2 -14 -14 -14 -11 0 -18 4 -15 8 2 4 -5 6 -16 5
-11 -1 -20 -5 -20 -10 0 -4 -5 -5 -10 -2 -6 4 -7 12 -3 18 3 7 -3 4 -14 -6
-13 -11 -23 -14 -27 -8 -5 7 -15 7 -32 1 -17 -7 -23 -7 -19 0 8 13 -1 13 -27
-1 -13 -7 -18 -7 -14 -1 4 6 -2 10 -14 9 -11 -1 -20 -6 -20 -12 0 -5 -5 -3
-10 5 -5 8 -10 11 -10 5 0 -5 -5 -3 -10 5 -8 12 -10 12 -11 -5z"/>
</g>
</svg>
